Coordinates
version=1
nRows=8
nColumns=42
inDegrees=yes

Units are S.I. units (second, meters, Newtons, ...)
If the header above contains a line with 'inDegrees', this indicates whether rotational values are in degrees (yes) or radians (no).

endheader
time	pelvis_tilt	pelvis_list	pelvis_rotation	pelvis_tx	pelvis_ty	pelvis_tz	hip_flexion_r	hip_adduction_r	hip_rotation_r	knee_angle_r	knee_adduction_r	knee_angle_r_beta	ankle_angle_r	subtalar_angle_r	mtp_angle_r	hip_flexion_l	hip_adduction_l	hip_rotation_l	knee_angle_l	knee_adduction_l	knee_angle_l_beta	ankle_angle_l	subtalar_angle_l	mtp_angle_l	lumbar_extension	lumbar_bending	lumbar_rotation	arm_flex_r	arm_add_r	arm_rot_r	elbow_flex_r	pro_sup_r	wrist_flex_r	wrist_dev_r	arm_flex_l	arm_add_l	arm_rot_l	elbow_flex_l	pro_sup_l	wrist_flex_l	wrist_dev_l
      8.50000000	      6.35343866	     -1.91419057	     -2.96452748	      0.97206330	      0.93213806	     -0.14599290	     15.28342676	     -7.03856027	    -24.73056016	     30.61713216	      1.55420074	      0.53436976	      5.88010423	     12.65955855	     -7.50016919	      0.94800985	     -2.40305984	    -20.49046419	     30.87170213	     -1.44955546	      0.53881285	     19.95796006	      0.92548872	     -7.50016919	    -18.26862932	      1.44549361	     -4.42830067	      6.60611868	    -11.29614579	      7.19407795	     42.90331144	     90.00000001	      0.00000000	      0.00000000	    -12.57232325	    -11.79461218	     -0.35384067	     52.27420122	     90.00000001	      0.00000000	      0.00000000
      8.51000000	      6.39012383	     -1.71896967	     -2.65742961	      0.97531727	      0.93165335	     -0.14548179	     15.19994090	     -7.07325553	    -24.64908704	     30.92357302	      1.32907593	      0.53971817	      6.48855704	     11.69716430	     -7.50016739	      0.70767771	     -2.20170975	    -20.23463233	     30.81039346	     -1.49283355	      0.53774281	     20.24838119	      1.07935269	     -7.50016739	    -18.19367954	      1.41804414	     -4.57449901	      6.49210867	    -11.26289475	      6.96560463	     42.63474746	     90.00000001	      0.00000000	      0.00000000	    -12.33342613	    -11.82491441	     -0.20215026	     52.09239200	     90.00000001	      0.00000000	      0.00000000
      8.52000000	      6.39751123	     -1.54757992	     -2.40453625	      0.97840749	      0.93115992	     -0.14480279	     15.16345683	     -7.06096525	    -24.38283032	     31.19579511	      1.16381384	      0.54446934	      6.86304952	     10.93949313	     -7.50016566	      0.52785871	     -2.03079845	    -20.00762500	     30.78850905	     -1.57146584	      0.53736085	     20.42144391	      1.18086649	     -7.50016566	    -18.11500248	      1.39741082	     -4.62792160	      6.38745778	    -11.26934508	      6.75211901	     42.40188529	     90.00000001	      0.00000000	      0.00000000	    -12.08876664	    -11.86475645	     -0.12366976	     52.01460462	     90.00000001	      0.00000000	      0.00000000
      8.53000000	      6.38250271	     -1.38777467	     -2.17328632	      0.98167662	      0.93067475	     -0.14416368	     15.14595670	     -7.06406130	    -24.06933312	     31.49566259	      1.03377326	      0.54970301	      7.26290171	     10.09483985	     -7.50016363	      0.33266946	     -1.87759022	    -19.80190062	     30.74089049	     -1.61486550	      0.53652975	     20.59131635	      1.24949883	     -7.50016363	    -17.99741427	      1.39077347	     -4.68496946	      6.27584828	    -11.26777887	      6.52060118	     42.15720819	     90.00000001	      0.00000000	      0.00000000	    -11.88672522	    -11.81479330	     -0.04335255	     51.91398037	     90.00000001	      0.00000000	      0.00000000
      8.54000000	      6.37584751	     -1.30094857	     -1.94379238	      0.98493122	      0.93026555	     -0.14346325	     15.07653921	     -6.99609210	    -23.85915456	     31.67585323	      0.86425470	      0.55284793	      7.35954339	      9.94347617	     -7.50016326	      0.15644190	     -1.82952874	    -19.70479659	     30.76337176	     -1.71029881	      0.53692213	     20.62774340	      1.26862286	     -7.50016326	    -17.90287504	      1.46987551	     -4.73052594	      6.14767896	    -11.34439635	      6.47079774	     42.03219936	     90.00000001	      0.00000000	      0.00000000	    -11.71798811	    -11.77233728	     -0.03645832	     51.94413607	     90.00000001	      0.00000000	      0.00000000
      8.55000000	      6.35864866	     -1.12933224	     -1.74559731	      0.98811014	      0.92984670	     -0.14271389	     15.13309781	     -7.04148615	    -23.41089584	     32.15261976	      0.79882518	      0.56116908	      8.02508032	      8.70816807	     -7.50016066	     -0.07784017	     -1.62258342	    -19.37032658	     30.61601816	     -1.74179023	      0.53435032	     20.88797372	      1.38007286	     -7.50016066	    -17.80245604	      1.44419396	     -4.76884965	      6.12831588	    -11.31253001	      6.14953045	     41.71033790	     90.00000001	      0.00000000	      0.00000000	    -11.46802838	    -11.71870756	     -0.00754229	     51.76138921	     90.00000001	      0.00000000	      0.00000000
      8.56000000	      6.35406755	     -1.07332217	     -1.55317745	      0.99138855	      0.92950585	     -0.14187857	     15.11194240	     -6.95302769	    -23.16293222	     32.47449933	      0.63305859	      0.56678694	      8.27499089	      8.27606809	     -7.50015970	     -0.30698424	     -1.60279784	    -19.25445190	     30.55719550	     -1.80852253	      0.53332367	     20.97765679	      1.40523652	     -7.50015970	    -17.71515607	      1.54593291	     -4.78263632	      6.07534136	    -11.37112150	      6.03706659	     41.54678691	     90.00000001	      0.00000000	      0.00000000	    -11.29541175	    -11.65212586	     -0.00685996	     51.73821882	     90.00000001	      0.00000000	      0.00000000
      8.57000000	      6.30581492	     -0.93933037	     -1.39525147	      0.99464252	      0.92912532	     -0.14095918	     15.16947591	     -6.97904814	    -22.80181961	     32.88899522	      0.57971268	      0.57402125	      8.80076040	      7.35911488	     -7.50015770	     -0.54251037	     -1.51733532	    -19.08838072	     30.39944190	     -1.76712641	      0.53057035	     21.18472637	      1.51140626	     -7.50015770	    -17.58549043	      1.54743478	     -4.81320225	      6.05127183	    -11.36085418	      5.80619286	     41.28197298	     90.00000001	      0.00000000	      0.00000000	    -11.11680953	    -11.58272724	     -0.03975666	     51.62332474	     90.00000001	      0.00000000	      0.00000000
